<svg width="18.000000" height="19.000000" viewBox="0 0 18 19" fill="none" xmlns="http://www.w3.org/2000/svg" xmlns:xlink="http://www.w3.org/1999/xlink">
	<desc>
			Created with Pixso.
	</desc>
	<defs/>
	<rect id="Social" width="18.000000" height="18.000000" fill="#FFFFFF" fill-opacity="0"/>
	<path id="Vector" d="M13.48 -0.75L10.42 -0.75C8.61 -0.75 6.59 0.02 6.59 2.7C6.6 3.64 6.59 4.53 6.59 5.54L4.5 5.54L4.5 8.94L6.66 8.94L6.66 18.75L10.63 18.75L10.63 8.88L13.26 8.88L13.5 5.53L10.57 5.53C10.57 5.53 10.57 4.04 10.57 3.61C10.57 2.55 11.65 2.61 11.71 2.61C12.23 2.61 13.23 2.61 13.48 2.61L13.48 -0.75L13.48 -0.75Z" fill="#333" fill-opacity="1.000000" fill-rule="nonzero"/>
</svg>
