<svg width="20.000000" height="20.000000" viewBox="0 0 20 20" fill="none" xmlns="http://www.w3.org/2000/svg" xmlns:xlink="http://www.w3.org/1999/xlink">
	<desc>
			Created with Pixso.
	</desc>
	<defs/>
	<path id="Vector" d="M0 2.32C0 1.64 0.22 1.09 0.67 0.65C1.12 0.21 1.71 -0.01 2.43 -0.01C3.14 -0.01 3.71 0.21 4.15 0.64C4.6 1.09 4.82 1.66 4.82 2.38C4.82 3.03 4.6 3.56 4.16 3.99C3.71 4.44 3.12 4.66 2.39 4.66L2.37 4.66C1.66 4.66 1.09 4.44 0.65 3.99C0.21 3.55 0 2.99 0 2.32ZM0.25 19.99L0.25 6.5L4.53 6.5L4.53 19.99L0.25 19.99ZM6.91 19.99L11.19 19.99L11.19 12.46C11.19 11.99 11.24 11.62 11.35 11.37C11.53 10.91 11.8 10.52 12.17 10.21C12.53 9.89 12.99 9.73 13.55 9.73C14.99 9.73 15.71 10.75 15.71 12.78L15.71 19.99L20 19.99L20 12.26C20 10.26 19.54 8.75 18.64 7.72C17.74 6.69 16.55 6.18 15.07 6.18C13.41 6.18 12.12 6.92 11.19 8.42L11.19 8.46L11.17 8.46L11.19 8.42L11.19 6.5L6.91 6.5C6.93 6.93 6.94 8.27 6.94 10.52C6.94 12.77 6.93 15.93 6.91 19.99Z" fill="#333" fill-opacity="1.000000" fill-rule="nonzero"/>
</svg>
