<svg width="24.000000" height="24.000000" viewBox="0 0 24 24" fill="none" xmlns="http://www.w3.org/2000/svg" xmlns:xlink="http://www.w3.org/1999/xlink">
	<desc>
			Created with Pixso.
	</desc>
	<defs>
		<clipPath id="clip3_442">
			<rect id="Arrows / right arrow" width="24.000000" height="24.000000" fill="white" fill-opacity="0"/>
		</clipPath>
	</defs>
	<rect id="Arrows / right arrow" width="24.000000" height="24.000000" fill="#FFFFFF" fill-opacity="0"/>
	<g clip-path="url(#clip3_442)">
		<path id="Vector" d="M17.92 11.62C17.87 11.49 17.8 11.38 17.7 11.29L12.71 6.29C12.61 6.19 12.5 6.12 12.38 6.07C12.26 6.02 12.13 5.99 12 5.99C11.73 5.99 11.47 6.1 11.29 6.29C11.19 6.38 11.12 6.49 11.07 6.61C11.02 6.73 10.99 6.86 10.99 7C10.99 7.26 11.1 7.52 11.29 7.7L14.59 11L7 11C6.73 11 6.48 11.1 6.29 11.29C6.1 11.48 6 11.73 6 12C6 12.26 6.1 12.51 6.29 12.7C6.48 12.89 6.73 13 7 13L14.59 13L11.29 16.29C11.19 16.38 11.12 16.49 11.07 16.61C11.02 16.73 10.99 16.86 10.99 17C10.99 17.13 11.02 17.26 11.07 17.38C11.12 17.5 11.19 17.61 11.29 17.7C11.38 17.8 11.49 17.87 11.61 17.92C11.73 17.98 11.86 18 12 18C12.13 18 12.26 17.98 12.38 17.92C12.5 17.87 12.61 17.8 12.71 17.7L17.7 12.71C17.8 12.61 17.87 12.5 17.92 12.38C18.02 12.13 18.02 11.86 17.92 11.62Z" fill="#333" fill-opacity="1.000000" fill-rule="nonzero"/>
	</g>
</svg>
