<svg width="32.000000" height="32.000000" viewBox="0 0 32 32" fill="none" xmlns="http://www.w3.org/2000/svg" xmlns:xlink="http://www.w3.org/1999/xlink">
	<desc>
			Created with Pixso.
	</desc>
	<defs>
		<clipPath id="clip3_224">
			<rect id="Business / growth graph" width="32.000000" height="32.000000" fill="white" fill-opacity="0"/>
		</clipPath>
	</defs>
	<rect id="Business / growth graph" width="32.000000" height="32.000000" fill="#FFFFFF" fill-opacity="0"/>
	<g clip-path="url(#clip3_224)">
		<path id="Vector" d="M9.33 21.33C9.86 21.33 10.37 21.12 10.74 20.74C11.12 20.37 11.33 19.86 11.33 19.33C11.33 19.26 11.33 19.19 11.33 19.13L15.05 15.41L15.36 15.41L15.66 15.41L17.81 17.55C17.81 17.55 17.81 17.62 17.81 17.66C17.81 18.19 18.02 18.7 18.39 19.08C18.77 19.45 19.28 19.66 19.81 19.66C20.34 19.66 20.85 19.45 21.22 19.08C21.6 18.7 21.81 18.19 21.81 17.66L21.81 17.55L26.66 12.66C27.06 12.66 27.44 12.54 27.77 12.32C28.1 12.1 28.36 11.79 28.51 11.43C28.66 11.06 28.7 10.66 28.62 10.27C28.55 9.88 28.36 9.53 28.08 9.25C27.8 8.97 27.44 8.78 27.05 8.7C26.66 8.62 26.26 8.66 25.9 8.81C25.53 8.97 25.22 9.22 25 9.55C24.78 9.88 24.66 10.27 24.66 10.66C24.66 10.73 24.66 10.8 24.66 10.86L19.85 15.67L19.64 15.67L17.33 13.33C17.33 12.8 17.12 12.29 16.74 11.91C16.37 11.54 15.86 11.33 15.33 11.33C14.8 11.33 14.29 11.54 13.91 11.91C13.54 12.29 13.33 12.8 13.33 13.33L9.33 17.33C8.8 17.33 8.29 17.54 7.91 17.91C7.54 18.29 7.33 18.8 7.33 19.33C7.33 19.86 7.54 20.37 7.91 20.74C8.29 21.12 8.8 21.33 9.33 21.33ZM27.33 26.66L4.66 26.66L4.66 3.99C4.66 3.64 4.52 3.3 4.27 3.05C4.02 2.8 3.68 2.66 3.33 2.66C2.97 2.66 2.64 2.8 2.39 3.05C2.14 3.3 2 3.64 2 3.99L2 27.99C2 28.35 2.14 28.69 2.39 28.94C2.64 29.19 2.97 29.33 3.33 29.33L27.33 29.33C27.68 29.33 28.02 29.19 28.27 28.94C28.52 28.69 28.66 28.35 28.66 27.99C28.66 27.64 28.52 27.3 28.27 27.05C28.02 26.8 27.68 26.66 27.33 26.66Z" fill="#fff" fill-opacity="1.000000" fill-rule="nonzero"/>
	</g>
</svg>
